<?xml version="1.0" encoding="utf-8"?>
<!-- Generator: Adobe Illustrator 23.0.3, SVG Export Plug-In . SVG Version: 6.00 Build 0)  -->
<svg version="1.1" id="圖層_1" xmlns="http://www.w3.org/2000/svg" xmlns:xlink="http://www.w3.org/1999/xlink" x="0px" y="0px"
	 viewBox="0 0 1139.5 1139.5" style="enable-background:new 0 0 1139.5 1139.5;" xml:space="preserve">
<style type="text/css">
	.st0{fill:url(#SVGID_1_);}
	.st1{fill:url(#SVGID_2_);}
	.st2{fill:url(#SVGID_3_);}
	.st3{fill:url(#SVGID_4_);}
	.st4{fill:url(#SVGID_5_);}
	.st5{fill:url(#SVGID_6_);}
	.st6{fill:url(#SVGID_7_);}
	.st7{fill:url(#SVGID_8_);}
	.st8{fill:#E6E6E6;}
	.st9{fill:url(#SVGID_9_);}
	.st10{fill:url(#SVGID_10_);}
	.st11{fill:url(#SVGID_11_);}
	.st12{fill:url(#SVGID_12_);}
	.st13{fill:url(#SVGID_13_);}
	.st14{fill:url(#SVGID_14_);}
	.st15{fill:url(#SVGID_15_);}
	.st16{fill:url(#SVGID_16_);}
	.st17{fill:url(#SVGID_17_);}
	.st18{fill:url(#SVGID_18_);}
	.st19{fill:url(#SVGID_19_);}
	.st20{fill:url(#SVGID_20_);}
	.st21{fill:url(#SVGID_21_);}
	.st22{fill:url(#SVGID_22_);}
	.st23{fill:url(#SVGID_23_);}
	.st24{fill:url(#SVGID_24_);}
	.st25{fill:#B3B3B3;}
	.st26{fill:#FFC0F5;}
	.st27{fill:#96FAFF;}
</style>
<g>
	<g>
		<path class="st26" d="M781.8,881.34v70.44l-81.96,17.93l33.05-189.55h80.64l-5.29,185.71c-83.28,43.55-174.49,61.48-267.02,61.48
			c-267.02,0-446.8-186.99-446.8-448.27c0-256.16,187.71-448.27,445.47-448.27c71.38,0,165.24,11.53,255.12,61.48l5.29,185.71
			h-80.63l-33.05-189.55l81.96,17.93v78.13c-75.35-67.88-149.37-89.65-212.82-89.65c-178.45,0-322.54,134.48-322.54,384.23
			S362.76,963.31,546.5,963.31C621.85,963.31,706.45,941.54,781.8,881.34z"/>
	</g>
</g>
<g>
	<g>
		<path class="st27" d="M689.22,643.4v-22.22h184.99v22.22l-85.89,8.33h-13.21L689.22,643.4z M870.91,868.39L726.22,621.17h68.71
			l120.25,218.88h-23.12l123.55-218.88h33.69L907.25,868.39H870.91z M896.02,962.83l92.5,8.33v22.22H790.3v-22.22l92.5-8.33H896.02z
			 M859.68,826.72h59.46c0,63.33,0,117.22,1.98,166.66h-63.43C859.68,945.06,859.68,890.61,859.68,826.72z M1012.3,651.73
			l-73.34-8.33v-22.22h151.96v22.22l-66.07,8.33H1012.3z"/>
	</g>
</g>
</svg>
